HIERARCHY
ROOT SpineBase
{
  OFFSET 0.000000 0.000000 0.000000
  CHANNELS 6 Xposition Yposition Zposition Zrotation Xrotation Yrotation
  JOINT SpineMid
  {
    OFFSET 0.000000 35.492359 0.000000
    CHANNELS 3 Zrotation Xrotation Yrotation
    JOINT SpineShoulder
    {
      OFFSET 0.029056 26.330511 -0.947769
      CHANNELS 3 Zrotation Xrotation Yrotation
      JOINT Neck
      {
        OFFSET 0.031520 8.690275 -0.700203
        CHANNELS 3 Zrotation Xrotation Yrotation
        JOINT Head
        {
          OFFSET -0.334312 11.277107 3.671282
          CHANNELS 3 Zrotation Xrotation Yrotation
          End Site
          {
            OFFSET 0 0 0
          }
        }
      }
      JOINT ShoulderLeft
      {
        OFFSET -7.504076 -4.950474 -5.607870
        CHANNELS 3 Zrotation Xrotation Yrotation
        JOINT ElbowLeft
        {
          OFFSET -7.521157 -20.596295 8.017168
          CHANNELS 3 Zrotation Xrotation Yrotation
          JOINT WristLeft
          {
            OFFSET -1.789194 -23.279045 4.379594
            CHANNELS 3 Zrotation Xrotation Yrotation
            JOINT HandLeft
            {
              OFFSET 2.391142 -3.940401 -8.810463
              CHANNELS 3 Zrotation Xrotation Yrotation
              JOINT HandTipLeft
              {
                OFFSET -0.484965 -6.286830 -0.757219
                CHANNELS 3 Zrotation Xrotation Yrotation
                End Site
                {
                  OFFSET 0 0 0
                }
              }
              JOINT ThumbLeft
              {
                OFFSET 2.176123 4.915097 -6.276011
                CHANNELS 3 Zrotation Xrotation Yrotation
                End Site
                {
                  OFFSET 0 0 0
                }
              }
            }
          }
        }
      }
      JOINT ShoulderRight
      {
        OFFSET 10.935284 -5.991456 -13.347756
        CHANNELS 3 Zrotation Xrotation Yrotation
        JOINT ElbowRight
        {
          OFFSET 6.341968 -23.355539 -1.939581
          CHANNELS 3 Zrotation Xrotation Yrotation
          JOINT WristRight
          {
            OFFSET 5.208306 -22.649935 4.388655
            CHANNELS 3 Zrotation Xrotation Yrotation
            JOINT HandRight
            {
              OFFSET -0.588565 -4.956028 1.617585
              CHANNELS 3 Zrotation Xrotation Yrotation
              JOINT HandTipRight
              {
                OFFSET 1.291940 -6.395638 -0.281721
                CHANNELS 3 Zrotation Xrotation Yrotation
                End Site
                {
                  OFFSET 0 0 0
                }
              }
              JOINT ThumbRight
              {
                OFFSET -3.762967 1.543007 -2.768235
                CHANNELS 3 Zrotation Xrotation Yrotation
                End Site
                {
                  OFFSET 0 0 0
                }
              }
            }
          }
        }
      }
    }
  }
  JOINT HipLeft
  {
    OFFSET -5.912604 1.101631 -1.011912
    CHANNELS 3 Zrotation Xrotation Yrotation
    JOINT KneeLeft
    {
      OFFSET -2.609108 -26.908691 -1.244973
      CHANNELS 3 Zrotation Xrotation Yrotation
      JOINT AnkleLeft
      {
        OFFSET 0.132922 -31.751341 0.578705
        CHANNELS 3 Zrotation Xrotation Yrotation
        JOINT FootLeft
        {
          OFFSET -0.533263 -3.749364 -4.627809
          CHANNELS 3 Zrotation Xrotation Yrotation
          End Site
          {
            OFFSET 0 0 0
          }
        }
      }
    }
  }
  JOINT HipRight
  {
    OFFSET 6.323516 1.705370 -6.368141
    CHANNELS 3 Zrotation Xrotation Yrotation
    JOINT KneeRight
    {
      OFFSET 4.953503 -25.194279 -3.873798
      CHANNELS 3 Zrotation Xrotation Yrotation
      JOINT AnkleRight
      {
        OFFSET -0.974468 -32.031280 -0.911794
        CHANNELS 3 Zrotation Xrotation Yrotation
        JOINT FootRight
        {
          OFFSET 1.061012 -4.611951 -2.658306
          CHANNELS 3 Zrotation Xrotation Yrotation
          End Site
          {
            OFFSET 0 0 0
          }
        }
      }
    }
  }
}
MOTION
Frames: 5
Frame Time: 0.033333
-14.019101 63.052928 256.912708 -0.000000 0.000000 23.640881 -0.000000 0.000000 -23.640881 -0.000000 0.000000 0.000000 -0.000000 0.000000 0.000000 0.000000 0.000000 0.000000 -0.000000 0.000000 0.000000 -0.000000 0.000000 0.000000 -0.000000 0.000000 0.000000 -0.000000 0.000000 0.000000 0.000000 0.000000 0.000000 0.000000 0.000000 0.000000 -0.000000 0.000000 0.000000 -0.000000 0.000000 0.000000 -0.000000 0.000000 0.000000 -0.000000 0.000000 0.000000 0.000000 0.000000 0.000000 0.000000 0.000000 0.000000 -0.000000 0.000000 -23.640881 -0.000000 0.000000 0.000000 -0.000000 0.000000 0.000000 0.000000 0.000000 0.000000 -0.000000 0.000000 -23.640881 -0.000000 0.000000 0.000000 -0.000000 0.000000 0.000000 0.000000 0.000000 0.000000
-14.018009 63.058684 256.881110 0.060701 0.037364 23.888329 -0.070632 -0.009582 -23.888355 -0.000000 0.000000 0.000000 -0.000000 0.000000 0.000000 0.000000 0.000000 0.000000 -0.000000 0.000000 0.000000 -0.000000 0.000000 0.000000 -0.750586 -2.472497 0.170372 2.695847 9.764163 -1.196734 0.000000 0.000000 0.000000 0.000000 0.000000 0.000000 -0.000000 0.000000 0.000000 -0.000000 0.000000 0.000000 -0.000000 0.000000 0.000000 -1.330847 -0.789343 -0.110287 0.000000 0.000000 0.000000 0.000000 0.000000 0.000000 -0.070632 -0.009582 -23.888355 -0.000000 0.000000 0.000000 -2.939631 8.483154 2.408793 0.000000 0.000000 0.000000 -0.070632 -0.009582 -23.888355 -0.000000 0.000000 0.000000 -7.522938 13.342001 7.881702 0.000000 0.000000 0.000000
-14.016839 63.065198 256.851494 0.111659 0.068564 24.102876 -0.129924 -0.016987 -24.102962 -0.000000 0.000000 0.000000 -0.883753 0.167915 0.293912 0.000000 0.000000 0.000000 -0.000000 0.000000 0.000000 -0.000000 0.000000 0.000000 -1.740037 -5.743812 0.358721 5.633969 19.145873 -2.826379 0.000000 0.000000 0.000000 0.000000 0.000000 0.000000 -0.000000 0.000000 0.000000 -0.000000 0.000000 0.000000 -0.000000 0.000000 0.000000 -2.434688 -1.376244 -0.200973 0.000000 0.000000 0.000000 0.000000 0.000000 0.000000 -0.129924 -0.016987 -24.102962 -0.000000 0.000000 0.000000 -4.723730 13.167538 3.915660 0.000000 0.000000 0.000000 -0.129924 -0.016987 -24.102962 -0.000000 0.000000 0.000000 -13.730909 21.283304 14.268167 0.000000 0.000000 0.000000
-14.015591 63.072469 256.823858 0.152877 0.093605 24.284708 -0.177847 -0.022448 -24.284868 -0.000000 0.000000 0.000000 -1.181860 0.267093 0.395262 0.000000 0.000000 0.000000 -0.000000 0.000000 0.000000 -0.000000 0.000000 0.000000 -3.038937 -10.040062 0.534880 9.164938 28.558390 -5.116902 0.000000 0.000000 0.000000 0.000000 0.000000 0.000000 -0.000000 0.000000 0.000000 -0.000000 0.000000 0.000000 0.162712 1.005227 -0.067907 -3.492283 -2.783273 -0.258821 0.000000 0.000000 0.000000 0.000000 0.000000 0.000000 -0.177847 -0.022448 -24.284868 -0.000000 0.000000 0.000000 -5.649486 15.595114 4.692096 0.000000 0.000000 0.000000 -0.177847 -0.022448 -24.284868 -0.000000 0.000000 0.000000 -18.239138 25.741840 18.854319 0.000000 0.000000 0.000000
-14.014264 63.080498 256.798204 0.184361 0.112487 24.433981 -0.214379 -0.026153 -24.434211 -0.000000 0.000000 0.000000 -1.383650 0.376994 0.465865 0.000000 0.000000 0.000000 -0.000000 0.000000 0.000000 -0.000000 0.000000 0.000000 -4.735658 -15.595115 0.633092 13.890422 38.351670 -8.586024 0.000000 0.000000 0.000000 0.000000 0.000000 0.000000 -0.000000 0.000000 0.000000 -0.000000 0.000000 0.000000 0.034455 1.231448 -0.135855 -4.063663 -3.236879 -0.250595 0.000000 0.000000 0.000000 0.000000 0.000000 0.000000 -0.214379 -0.026153 -24.434211 -0.000000 0.000000 0.000000 -5.876570 16.456940 4.849111 0.000000 0.000000 0.000000 -0.214379 -0.026153 -24.434211 -0.000000 0.000000 0.000000 -21.204912 28.132378 21.835195 0.000000 0.000000 0.000000
